# xmcd
#
# Track frame offsets: 
#        150
#        19959
#        39633
#        56641
#        78071
#        96539
#        114803
#        132983
#        150772
#        170377
#        192419
#        211869
#
# Disc length: 3168 seconds
#
# Revision: 2
# Processed by: cddbd v1.5.2PL0 Copyright (c) Steve Scherf et al.
# Submitted via: ExactAudioCopy v0.95b1
#
DISCID=930c5e0c
DTITLE=Drew Davidsen - True Drew
DYEAR=2013
DGENRE=Smooth Jazz
TTITLE0=My Guitar
TTITLE1=95 South
TTITLE2=Hi5
TTITLE3=Double Or Nothin'
TTITLE4=All Night And Forever
TTITLE5=Sweet Spot
TTITLE6=I'm Into You
TTITLE7=Do Right
TTITLE8=I Can't Help It
TTITLE9=Change The World
TTITLE10=All Creatures
TTITLE11=Give Me Your Heart
EXTD=YEAR: 2013
EXTT0=
EXTT1=
EXTT2=
EXTT3=
EXTT4=
EXTT5=
EXTT6=
EXTT7=
EXTT8=
EXTT9=
EXTT10=
EXTT11=
PLAYORDER=
